<?xml version="1.0" encoding="UTF-8"?>
<svg width="484px" height="72px" viewBox="0 0 484 72" version="1.1" xmlns="http://www.w3.org/2000/svg" xmlns:xlink="http://www.w3.org/1999/xlink">
    <!-- Generator: Sketch 55.2 (78181) - https://sketchapp.com -->
    <title>big right side</title>
    <desc>Created with Sketch.</desc>
    <g id="Design-System" stroke="none" stroke-width="1" fill="none" fill-rule="evenodd">
        <g id="Desktop-HD-Copy" transform="translate(-902.000000, -86.000000)" fill="#0F0F10" fill-rule="nonzero">
            <g id="big-right-side" transform="translate(902.000000, 86.000000)">
                <g id="big-digital">
                    <path d="M-5.68434189e-14,31.4496 C-5.68434189e-14,27.7056 1.3031971,24.5439997 3.90959223,21.9648 C6.51598737,19.344 9.63144368,18.0128003 13.2559612,17.9712 C16.6361291,17.9712 19.5886864,19.1151997 22.1136311,21.4032 L22.1136311,2.2464 C22.1136311,0.7488 22.8466796,3.55271368e-15 24.3127767,3.55271368e-15 C25.7381486,3.55271368e-15 26.450835,0.7488 26.450835,2.2464 L26.450835,47.1744 C26.450835,48.672 25.7381486,49.4208 24.3127767,49.4208 C22.8466796,49.4208 22.1136311,48.672 22.1136311,47.1744 L22.1136311,45.9888 C19.5886864,48.2768003 16.6361291,49.4208 13.2559612,49.4208 C9.63144368,49.4208 6.51598737,48.1104 3.90959223,45.4896 C1.34392233,42.9104003 0.0407252298,39.7280003 -5.68434189e-14,35.9424 L-5.68434189e-14,31.4496 Z M13.2559612,22.4016 C10.812466,22.4016 8.75585729,23.2959997 7.08613592,25.0848 C5.37568932,26.832 4.52046602,28.9536 4.52046602,31.4496 L4.52046602,35.9424 C4.52046602,38.4384 5.37568932,40.56 7.08613592,42.3072 C8.79658252,44.0960003 10.8531912,44.9904 13.2559612,44.9904 C15.6994563,44.9904 17.7764272,44.0960003 19.4868738,42.3072 C21.2380456,40.56 22.1136311,38.4384 22.1136311,35.9424 L22.1136311,31.4496 C22.1136311,28.9536 21.2380456,26.832 19.4868738,25.0848 C17.7764272,23.2959997 15.6994563,22.4016 13.2559612,22.4016 Z" id="d"></path>
                    <path d="M56.1252039,47.1744 C56.1252039,48.672 55.4125175,49.4208 53.9871456,49.4208 C52.5210485,49.4208 51.788,48.672 51.788,47.1744 L51.788,27.0192 C51.788,25.7712 51.3603883,24.6896003 50.505165,23.7744 C49.6499417,22.9008 48.6114563,22.4432003 47.3897087,22.4016 L45.1905631,22.4016 C43.7651912,22.4016 43.0525049,21.6528 43.0525049,20.1552 C43.0525049,18.6992003 43.7651912,17.9712 45.1905631,17.9712 L47.3897087,17.9712 C49.7924787,17.9712 51.8490874,18.8448 53.559534,20.592 C55.2699806,22.3392 56.1252039,24.4608 56.1252039,26.9568 L56.1252039,47.1744 Z M51.788,4.4928 C52.9690223,4.4928 54.0075078,4.9296 54.9034563,5.8032 C55.7586796,6.6768 56.1659291,7.7376 56.1252039,8.9856 C56.1252039,10.2336 55.7179544,11.2736003 54.9034563,12.1056 C54.048233,12.9792 53.0097476,13.4367997 51.788,13.4784 C50.5662524,13.4784 49.527767,13.0208003 48.6725437,12.1056 C47.8173204,11.232 47.3897087,10.1919997 47.3897087,8.9856 C47.3897087,7.77920032 47.8173204,6.71840032 48.6725437,5.8032 C49.527767,4.9296 50.5662524,4.4928 51.788,4.4928 Z" id="i"></path>
                    <path d="M85.6539029,71.3856 C84.7986796,71.0943997 83.9638185,70.7199997 83.1493204,70.2624 C82.4162718,69.8463997 81.6832233,69.3264 80.9501748,68.7024 C80.2578514,68.0784 79.7284272,67.4960003 79.3619029,66.9552 C78.9953786,66.456 78.8121165,65.9984003 78.8121165,65.5824 C78.8121165,65.2911997 78.8732039,65.0415997 78.9953786,64.8336 C79.0768282,64.584 79.219366,64.3551997 79.4229903,64.1472 C79.6266146,63.9807997 79.8506019,63.8352 80.0949515,63.7104 C80.339301,63.5856 80.5836505,63.5232 80.828,63.5232 C80.9094495,63.5232 81.0316243,63.5439997 81.1945243,63.5856 C81.3574243,63.6272003 81.5610485,63.7104 81.8053981,63.8352 L82.4162718,64.3344 C82.6198961,64.4592 82.8438835,64.6047997 83.088233,64.7712 C83.6583816,65.3120003 84.208168,65.7696 84.7375922,66.144 C85.2262913,66.4352003 85.6742651,66.6639997 86.0815146,66.8304 C86.4073136,67.0383997 86.8552883,67.1631997 87.4254369,67.2048 C87.9955854,67.2879997 88.6268223,67.3296 89.3191456,67.3296 C89.8485699,67.3296 90.3169058,67.3088003 90.7241553,67.2672 C91.1314048,67.2672 91.4572039,67.2255997 91.7015534,67.1424 C91.9051777,67.1007997 92.1902524,66.9968003 92.5567767,66.8304 C92.8825757,66.7056 93.2287379,66.5184 93.5952621,66.2688 C94.0839612,65.8944 94.5726602,65.4783997 95.0613592,65.0208 C95.509333,64.5632003 95.9573078,64.0431997 96.4052816,63.4608 C96.8125311,62.8784003 97.1179679,62.3168003 97.3215922,61.776 C97.5659417,61.2768 97.6881165,60.7983997 97.6881165,60.3408 C97.7288417,59.5503997 97.5252165,58.7600003 97.0772427,57.9696 C96.6699932,57.2208 96.0591194,56.4927997 95.2446214,55.7856 C94.3893981,55.0784003 93.5138126,54.5376 92.6178641,54.1632 C91.6811912,53.8304003 90.7241553,53.664 89.7467573,53.664 C88.3213854,53.7056003 87.0181874,53.4768 85.837165,52.9776 C84.696867,52.4784 83.6991068,51.7712003 82.8438835,50.856 C81.9886602,49.9407997 81.2759738,48.7551997 80.7058252,47.2992 C80.1356767,45.8847997 79.687702,44.1999997 79.3619029,42.2448 L78.9953786,40.6224 C78.8732039,40.1232 78.7510291,39.5823997 78.6288544,39 C78.4659544,38.5424003 78.3234175,38.1056003 78.2012427,37.6896 C78.0383427,37.2735997 77.8958058,36.8991997 77.7736311,36.5664 C77.3663816,35.8176 77.0609447,35.0480003 76.8573204,34.2576 C76.7351456,33.6336 76.6740583,32.9888003 76.6740583,32.3232 L76.6740583,32.0112 C76.6740583,31.7199997 76.6944204,31.4496 76.7351456,31.2 C76.7351456,30.9504 76.7555078,30.7008 76.796233,30.4512 C76.959133,29.4111997 77.3052942,28.4544 77.8347184,27.5808 C78.3234175,26.6655997 78.9953786,25.7712 79.8506019,24.8976 C80.5429253,24.1488 81.2556117,23.5248 81.9886602,23.0256 C82.7217087,22.5680003 83.4547573,22.1936003 84.1878058,21.9024 C84.8801291,21.6528 85.7557155,21.4656 86.8145631,21.3408 C87.8734107,21.1743997 89.1155213,21.0912 90.5408932,21.0912 L93.1065631,21.0912 C93.7988864,21.0495997 94.3079485,20.9871997 94.6337476,20.904 C94.9188223,20.904 95.2649835,20.8208003 95.672233,20.6544 C96.0794825,20.4879997 96.5274563,20.28 97.0161553,20.0304 C97.2605049,19.9056 97.5455796,19.7391997 97.8713786,19.5312 C98.1971777,19.4064 98.5433398,19.2192 98.9098641,18.9696 C99.2356631,18.6783997 99.5411,18.4287997 99.8261748,18.2208 C100.151974,18.0128003 100.437049,17.8047997 100.681398,17.5968 C100.885022,17.4303997 101.10901,17.2640003 101.353359,17.0976 C101.597709,16.9728 101.86242,16.8272003 102.147495,16.6608 C102.351119,16.536 102.554745,16.4319997 102.758369,16.3488 C102.921269,16.2656003 103.063806,16.224 103.185981,16.224 C103.43033,16.224 103.67468,16.2864 103.919029,16.4112 C104.163379,16.4943997 104.367003,16.6608 104.529903,16.9104 C104.692803,17.1183997 104.83534,17.3472 104.957515,17.5968 C105.038964,17.8047997 105.079689,18.0336 105.079689,18.2832 C105.120415,18.6159997 105.018602,18.9903997 104.774252,19.4064 C104.489178,19.7808 104.102291,20.2176 103.613592,20.7168 C103.165618,21.216 102.636194,21.6735997 102.02532,22.0896 C101.455172,22.5056003 100.844298,22.8800003 100.192699,23.2128 C99.9483495,23.3792003 99.6225505,23.5664003 99.215301,23.7744 C98.8080515,23.9823997 98.3397155,24.2112 97.8102913,24.4608 C97.932466,24.5856 98.095366,24.7728 98.2989903,25.0224 C98.5026146,25.272 98.7266019,25.5423997 98.9709515,25.8336 C99.4189253,26.3744003 99.7854495,26.9568 100.070524,27.5808 C100.396323,28.2048 100.661036,28.8495997 100.86466,29.5152 C101.02756,30.1392 101.129372,30.7839997 101.170097,31.4496 C101.210822,32.0736 101.170097,32.6976 101.047922,33.3216 C100.844298,34.5696 100.437049,35.7135997 99.8261748,36.7536 C99.215301,37.8351997 98.421165,38.8335997 97.443767,39.7488 C96.4256437,40.6640003 95.2853466,41.4128003 94.0228738,41.9952 C92.7196767,42.5360003 91.2943039,42.8688 89.7467573,42.9936 C89.4616825,43.0352003 89.1562456,43.056 88.8304466,43.056 C88.4639223,43.056 88.1381233,43.0352003 87.8530485,42.9936 C87.4865243,42.9936 87.12,42.9519997 86.7534757,42.8688 C86.3869515,42.8271997 86.0407893,42.744 85.7149903,42.6192 C85.3891912,42.5360003 85.1041165,42.4736003 84.859767,42.432 C84.6561427,42.3488003 84.4525175,42.2864003 84.2488932,42.2448 C84.0045437,42.2031997 83.8212816,42.1824 83.6991068,42.1824 L83.5158447,42.1824 C83.3936699,42.3072 83.3936699,42.5568 83.5158447,42.9312 C83.6380194,43.2639997 83.8416437,43.7631997 84.1267184,44.4288 C84.371068,45.0944003 84.6357796,45.6975997 84.9208544,46.2384 C85.2059291,46.7376 85.4910029,47.1536003 85.7760777,47.4864 C86.1018767,47.8191997 86.4073136,48.1104 86.6923883,48.36 C86.9367379,48.6096 87.1810874,48.7551997 87.4254369,48.7968 C87.5883369,48.8799997 87.9141359,48.984 88.402835,49.1088 C88.891534,49.1919997 89.543133,49.2543997 90.3576311,49.296 C91.5793786,49.4624003 92.7196767,49.7328 93.7785243,50.1072 C94.8780971,50.3984003 95.8554951,50.8143997 96.7107184,51.3552 C97.5659417,51.8960003 98.3804398,52.5824003 99.1542136,53.4144 C99.8872621,54.2463997 100.559223,55.1823997 101.170097,56.2224 C101.373721,56.6799997 101.556984,57.1167997 101.719883,57.5328 C101.882783,57.9488003 102.004958,58.3856003 102.086408,58.8432 C102.167857,59.3424 102.18822,59.8208003 102.147495,60.2784 C102.147495,60.7359997 102.086408,61.1936003 101.964233,61.6512 C101.801333,62.5664003 101.495896,63.4608 101.047922,64.3344 C100.640673,65.1663997 100.11125,65.9984003 99.4596505,66.8304 C98.8080515,67.6208003 98.0750029,68.3487997 97.2605049,69.0144 C96.4460068,69.6800003 95.5500583,70.2416003 94.5726602,70.6992 C93.9617864,70.9904003 93.2694631,71.2191997 92.4956893,71.3856 C91.7219155,71.5104 90.9074175,71.6144003 90.0521942,71.6976 C89.8078447,71.7392003 89.5838573,71.76 89.380233,71.76 L88.7082718,71.76 C88.1381233,71.76 87.5883369,71.7183997 87.0589126,71.6352 C86.5702136,71.6352 86.1018767,71.5520003 85.6539029,71.3856 Z M91.5182913,38.1888 C92.129165,37.9808003 92.6789515,37.752 93.1676505,37.5024 C93.6970747,37.1696003 94.2061359,36.7743997 94.694835,36.3168 C95.183534,35.9424 95.5907835,35.5056 95.9165825,35.0064 C96.2016573,34.5072 96.4256437,33.9663997 96.5885437,33.384 L96.8328932,32.5104 C96.8736184,32.3024003 96.8939806,32.1152003 96.8939806,31.9488 L96.8939806,31.824 C96.8532554,31.6160003 96.792168,31.3664003 96.7107184,31.0752 C96.6292689,30.7839997 96.5070942,30.4512 96.3441942,30.0768 C95.9776699,29.2863997 95.4686087,28.5584003 94.8170097,27.8928 C94.2061359,27.2688 93.4730874,26.7072 92.6178641,26.208 C92.0069903,25.9584 91.3961165,25.7504003 90.7852427,25.584 C90.1743689,25.4592 89.5634951,25.3968 88.9526214,25.3968 C88.6268223,25.3968 88.2806602,25.4175997 87.9141359,25.4592 C87.6290612,25.5423997 87.3236243,25.6047997 86.9978252,25.6464 C86.3462262,25.8543997 85.7353524,26.1039997 85.1652039,26.3952 C84.6357796,26.6448 84.1267184,26.9568 83.6380194,27.3312 C83.1493204,27.7472003 82.7217087,28.1840003 82.3551845,28.6416 C82.0293854,29.0991997 81.7443107,29.5776 81.4999612,30.0768 C81.3370612,30.4928003 81.2148864,30.8463997 81.1334369,31.1376 C81.0519874,31.4288003 81.0112621,31.6575997 81.0112621,31.824 C80.9705369,31.824 80.9501748,31.8447997 80.9501748,31.8864 L80.9501748,32.0112 C80.9501748,32.136 80.9705369,32.3024003 81.0112621,32.5104 C81.0519874,32.8016003 81.1334369,33.0927997 81.2556117,33.384 C81.3777864,33.8832 81.6017738,34.4031997 81.9275728,34.944 C82.2126476,35.4015997 82.599534,35.8383997 83.088233,36.2544 C83.4954825,36.7536 83.9638185,37.1696003 84.4932427,37.5024 C85.022667,37.752 85.5724534,37.9808003 86.1426019,38.1888 C86.6720262,38.3968 87.1607252,38.5215997 87.608699,38.5632 C88.0566728,38.6463997 88.4639223,38.688 88.8304466,38.688 C89.1562456,38.688 89.543133,38.6463997 89.9911068,38.5632 C90.4390806,38.5215997 90.9481427,38.3968 91.5182913,38.1888 Z" id="g"></path>
                    <path d="M132.249476,47.1744 C132.249476,48.672 131.536789,49.4208 130.111417,49.4208 C128.64532,49.4208 127.912272,48.672 127.912272,47.1744 L127.912272,27.0192 C127.912272,25.7712 127.48466,24.6896003 126.629437,23.7744 C125.774214,22.9008 124.735728,22.4432003 123.513981,22.4016 L121.314835,22.4016 C119.889463,22.4016 119.176777,21.6528 119.176777,20.1552 C119.176777,18.6992003 119.889463,17.9712 121.314835,17.9712 L123.513981,17.9712 C125.91675,17.9712 127.973359,18.8448 129.683806,20.592 C131.394252,22.3392 132.249476,24.4608 132.249476,26.9568 L132.249476,47.1744 Z M127.912272,4.4928 C129.093294,4.4928 130.13178,4.9296 131.027728,5.8032 C131.882951,6.6768 132.290201,7.7376 132.249476,8.9856 C132.249476,10.2336 131.842226,11.2736003 131.027728,12.1056 C130.172505,12.9792 129.134019,13.4367997 127.912272,13.4784 C126.690524,13.4784 125.652039,13.0208003 124.796816,12.1056 C123.941592,11.232 123.513981,10.1919997 123.513981,8.9856 C123.513981,7.77920032 123.941592,6.71840032 124.796816,5.8032 C125.652039,4.9296 126.690524,4.4928 127.912272,4.4928 Z" id="i"></path>
                    <path d="M162.046019,36.0048 L162.046019,22.4016 L155.448583,22.4016 C153.94176,22.4016 153.18835,21.6528 153.18835,20.1552 C153.18835,18.6992003 153.94176,17.9712 155.448583,17.9712 L162.046019,17.9712 L162.046019,11.232 C162.046019,9.7344 162.779068,8.9856 164.245165,8.9856 C165.711262,8.9856 166.444311,9.7344 166.444311,11.232 L166.444311,17.9712 L173.041748,17.9712 C174.54857,17.9712 175.301981,18.6992003 175.301981,20.1552 C175.301981,21.6528 174.54857,22.4016 173.041748,22.4016 L166.444311,22.4016 L166.444311,35.9424 C166.444311,38.4384 167.299534,40.56 169.009981,42.3072 C170.720427,44.0960003 172.81776,44.9904 175.301981,44.9904 C177.460401,44.9904 178.51925,45.7184003 178.478524,47.1744 C178.478524,48.672 177.419677,49.4208 175.301981,49.4208 C171.636738,49.4208 168.500919,48.1311997 165.894524,45.552 C163.328854,42.8895997 162.046019,39.7071997 162.046019,36.0048 Z" id="t"></path>
                    <path d="M204.036544,31.4496 C201.593049,31.4496 199.53644,32.0943997 197.866718,33.384 C196.156272,34.7151997 195.301049,36.3168 195.301049,38.1888 C195.301049,40.0191997 196.156272,41.6000003 197.866718,42.9312 C199.577165,44.2623997 201.633774,44.9487997 204.036544,44.9904 C206.480039,44.9904 208.55701,44.304 210.267456,42.9312 C212.018628,41.6000003 212.894214,40.0191997 212.894214,38.1888 C212.894214,36.3168 212.018628,34.7151997 210.267456,33.384 C208.55701,32.0943997 206.480039,31.4496 204.036544,31.4496 Z M217.231417,31.3872 L217.231417,47.1744 C217.231417,48.672 216.518731,49.4208 215.093359,49.4208 C213.627262,49.4208 212.894214,48.672 212.894214,47.1744 L212.894214,46.5504 C210.369269,48.4640003 207.416712,49.4208 204.036544,49.4208 C200.412026,49.4208 197.29657,48.3183997 194.690175,46.1136 C192.124505,43.9088003 190.821308,41.2671997 190.780583,38.1888 C190.780583,35.1104003 192.08378,32.4687997 194.690175,30.264 C197.29657,28.0592003 200.412026,26.9775997 204.036544,27.0192 C207.294537,27.0192 210.186007,27.9135997 212.710951,29.7024 C212.262978,27.6639997 211.244854,25.9584 209.656583,24.5856 C208.027585,23.1711997 206.15424,22.4432003 204.036544,22.4016 L197.439107,22.4016 C196.013735,22.4016 195.301049,21.6528 195.301049,20.1552 C195.301049,18.6992003 196.013735,17.9712 197.439107,17.9712 L204.036544,17.9712 C207.661061,17.9712 210.756155,19.2816 213.321825,21.9024 C215.92822,24.5232 217.231417,27.6848003 217.231417,31.3872 Z" id="a"></path>
                    <path d="M238.170291,2.2464 L238.170291,40.3728 C238.170291,41.6208 238.597903,42.7023997 239.453126,43.6176 C240.30835,44.4912 241.346835,44.9487997 242.568583,44.9904 L244.767728,44.9904 C246.1931,44.9904 246.905786,45.7184003 246.905786,47.1744 C246.905786,48.672 246.1931,49.4208 244.767728,49.4208 L242.568583,49.4208 C240.125087,49.4208 238.068479,48.5472 236.398757,46.8 C234.688311,45.0528 233.833087,42.9312 233.833087,40.4352 L233.833087,2.2464 C233.833087,0.7488 234.545774,3.55271368e-15 235.971146,3.55271368e-15 C237.437243,3.55271368e-15 238.170291,0.7488 238.170291,2.2464 Z" id="l"></path>
                </g>
                <g id="big-butik" transform="translate(305.436893, 0.000000)">
                    <path d="M26.450835,31.4496 L26.450835,35.9424 C26.450835,39.6864 25.1476379,42.8688 22.5412427,45.4896 C20.016298,48.1104 16.9212039,49.4208 13.2559612,49.4208 C9.87579319,49.4208 6.96396117,48.2768003 4.52046602,45.9888 L4.52046602,47.1744 C4.52046602,48.672 3.76705533,49.4208 2.26023301,49.4208 C0.753410693,49.4208 -2.30926389e-14,48.672 -2.30926389e-14,47.1744 L-2.30926389e-14,2.2464 C-2.30926389e-14,0.7488 0.753410693,2.13162821e-14 2.26023301,2.13162821e-14 C3.7263301,2.13162821e-14 4.47974079,0.7488 4.52046602,2.2464 L4.52046602,21.4032 C7.00468639,19.1151997 9.91651749,17.9712 13.2559612,17.9712 C16.9212039,17.9712 20.016298,19.3023997 22.5412427,21.9648 C25.1476379,24.5439997 26.450835,27.7056 26.450835,31.4496 Z M13.2559612,22.4016 C10.812466,22.4016 8.75585729,23.2959997 7.08613592,25.0848 C5.37568932,26.832 4.52046602,28.9536 4.52046602,31.4496 L4.52046602,35.9424 C4.52046602,38.4384 5.37568932,40.56 7.08613592,42.3072 C8.79658252,44.0960003 10.8531912,44.9904 13.2559612,44.9904 C15.6994563,44.9904 17.7764272,44.0960003 19.4868738,42.3072 C21.2380456,40.56 22.1136311,38.4384 22.1136311,35.9424 L22.1136311,31.4496 C22.1136311,28.9536 21.2380456,26.832 19.4868738,25.0848 C17.7764272,23.2959997 15.6994563,22.4016 13.2559612,22.4016 Z" id="b"></path>
                    <path d="M64.043068,47.1744 C64.043068,48.672 63.3303816,49.4208 61.9050097,49.4208 C60.4389126,49.4208 59.7058641,48.672 59.7058641,47.1744 L59.7058641,45.9888 C57.1809194,48.2768003 54.2283621,49.4208 50.8481942,49.4208 C47.2236767,49.4208 44.1082204,48.1104 41.5018252,45.4896 C38.9361553,42.9104003 37.6329582,39.7280003 37.592233,35.9424 L37.592233,20.1552 C37.592233,18.6992003 38.3456437,17.9712 39.852466,17.9712 C41.3185631,17.9712 42.0719738,18.6992003 42.112699,20.1552 L42.112699,35.9424 C42.112699,38.4384 42.9679223,40.56 44.6783689,42.3072 C46.3888155,44.0960003 48.4454243,44.9904 50.8481942,44.9904 C53.2916893,44.9904 55.3686602,44.0960003 57.0791068,42.3072 C58.8302786,40.56 59.7058641,38.4384 59.7058641,35.9424 L59.7058641,20.1552 C59.7058641,18.6992003 60.4389126,17.9712 61.9050097,17.9712 C63.3303816,17.9712 64.043068,18.6992003 64.043068,20.1552 L64.043068,47.1744 Z" id="u"></path>
                    <path d="M84.9819417,36.0048 L84.9819417,22.4016 L78.3845049,22.4016 C76.8776825,22.4016 76.1242718,21.6528 76.1242718,20.1552 C76.1242718,18.6992003 76.8776825,17.9712 78.3845049,17.9712 L84.9819417,17.9712 L84.9819417,11.232 C84.9819417,9.7344 85.7149903,8.9856 87.1810874,8.9856 C88.6471845,8.9856 89.380233,9.7344 89.380233,11.232 L89.380233,17.9712 L95.9776699,17.9712 C97.4844922,17.9712 98.2379029,18.6992003 98.2379029,20.1552 C98.2379029,21.6528 97.4844922,22.4016 95.9776699,22.4016 L89.380233,22.4016 L89.380233,35.9424 C89.380233,38.4384 90.2354563,40.56 91.9459029,42.3072 C93.6563495,44.0960003 95.7536825,44.9904 98.2379029,44.9904 C100.396323,44.9904 101.455172,45.7184003 101.414447,47.1744 C101.414447,48.672 100.355599,49.4208 98.2379029,49.4208 C94.5726602,49.4208 91.4368417,48.1311997 88.8304466,45.552 C86.2647767,42.8895997 84.9819417,39.7071997 84.9819417,36.0048 Z" id="t"></path>
                    <path d="M131.30967,47.1744 C131.30967,48.672 130.596984,49.4208 129.171612,49.4208 C127.705515,49.4208 126.972466,48.672 126.972466,47.1744 L126.972466,27.0192 C126.972466,25.7712 126.544854,24.6896003 125.689631,23.7744 C124.834408,22.9008 123.795922,22.4432003 122.574175,22.4016 L120.375029,22.4016 C118.949657,22.4016 118.236971,21.6528 118.236971,20.1552 C118.236971,18.6992003 118.949657,17.9712 120.375029,17.9712 L122.574175,17.9712 C124.976945,17.9712 127.033553,18.8448 128.744,20.592 C130.454447,22.3392 131.30967,24.4608 131.30967,26.9568 L131.30967,47.1744 Z M126.972466,4.4928 C128.153488,4.4928 129.191974,4.9296 130.087922,5.8032 C130.943146,6.6768 131.350395,7.7376 131.30967,8.9856 C131.30967,10.2336 130.90242,11.2736003 130.087922,12.1056 C129.232699,12.9792 128.194214,13.4367997 126.972466,13.4784 C125.750718,13.4784 124.712233,13.0208003 123.85701,12.1056 C123.001786,11.232 122.574175,10.1919997 122.574175,8.9856 C122.574175,7.77920032 123.001786,6.71840032 123.85701,5.8032 C124.712233,4.9296 125.750718,4.4928 126.972466,4.4928 Z" id="i"></path>
                    <path d="M176.90435,45.3648 C177.433774,45.9056003 177.698485,46.4256 177.698485,46.9248 C177.698485,47.4656003 177.433774,47.9856 176.90435,48.4848 C175.886226,49.5663997 174.847741,49.5663997 173.788893,48.4848 C170.5309,45.1568003 165.623547,40.1648003 159.066835,33.5088 L155.157243,37.5024 L155.157243,47.1744 C155.157243,48.672 154.444556,49.4208 153.019184,49.4208 C151.512362,49.4208 150.758951,48.672 150.758951,47.1744 L150.758951,2.2464 C150.758951,0.7488 151.512362,2.13162821e-14 153.019184,2.13162821e-14 C154.444556,2.13162821e-14 155.157243,0.7488 155.157243,2.2464 L155.157243,31.1376 L167.191456,18.8448 C168.20958,17.8047997 169.248065,17.8047997 170.306913,18.8448 C171.325036,19.8848003 171.325036,20.9456003 170.306913,22.0272 C168.515016,23.8992 165.806809,26.6655997 162.182291,30.3264 L176.90435,45.3648 Z" id="k"></path>
                </g>
            </g>
        </g>
    </g>
</svg>