<?xml version="1.0" encoding="UTF-8"?>
<svg width="102px" height="102px" viewBox="0 0 102 102" version="1.1" xmlns="http://www.w3.org/2000/svg" xmlns:xlink="http://www.w3.org/1999/xlink">
    <!-- Generator: Sketch 55.2 (78181) - https://sketchapp.com -->
    <title>left-side copy 2</title>
    <desc>Created with Sketch.</desc>
    <g id="Symbols" stroke="none" stroke-width="1" fill="none" fill-rule="evenodd">
        <g id="logox3">
            <g id="left-side-copy-2">
                <rect id="Rectangle" stroke="#0C0032" stroke-width="4.608" fill="#F7F8FA" x="2.304" y="2.304" width="96.6425747" height="97.392"></rect>
                <g id="db" transform="translate(18.409195, 23.181818)" fill="#0C0032" fill-rule="nonzero">
                    <path d="M0,36.8801653 C0,32.4896694 1.47386903,28.7821392 4.42160813,25.7575758 C7.36934724,22.6842287 10.8928162,21.1231638 14.9920151,21.0743802 C18.8148634,21.0743802 22.1540994,22.4159202 25.009721,25.0990014 L25.009721,2.63429752 C25.009721,0.878099174 25.8387725,0 27.4968756,0 C29.1089199,0 29.9149425,0.878099174 29.9149425,2.63429752 L29.9149425,55.3202479 C29.9149425,57.0764463 29.1089199,57.9545455 27.4968756,57.9545455 C25.8387725,57.9545455 25.009721,57.0764463 25.009721,55.3202479 L25.009721,53.9299242 C22.1540994,56.6130054 18.8148634,57.9545455 14.9920151,57.9545455 C10.8928162,57.9545455 7.36934724,56.4178719 4.42160813,53.3445248 C1.5199278,50.3199613 0.0460587695,46.5880399 0,42.1487603 L0,36.8801653 Z M14.9920151,26.2698003 C12.22851,26.2698003 9.90255953,27.3186406 8.01416474,29.4163223 C6.07971118,31.4652204 5.1124844,33.953168 5.1124844,36.8801653 L5.1124844,42.1487603 C5.1124844,45.0757576 6.07971118,47.5637052 8.01416474,49.6126033 C9.9486183,51.710285 12.2745688,52.7591253 14.9920151,52.7591253 C17.7555202,52.7591253 20.1044995,51.710285 22.038953,49.6126033 C24.0194654,47.5637052 25.009721,45.0757576 25.009721,42.1487603 L25.009721,36.8801653 C25.009721,33.953168 24.0194654,31.4652204 22.038953,29.4163223 C20.1044995,27.3186406 17.7555202,26.2698003 14.9920151,26.2698003 Z" id="d-copy"></path>
                    <path d="M64.4321839,36.8801653 L64.4321839,42.1487603 C64.4321839,46.5392562 62.9583149,50.2711777 60.0105758,53.3445248 C57.1549542,56.4178719 53.6545141,57.9545455 49.5092565,57.9545455 C45.6864081,57.9545455 42.3932309,56.6130054 39.6297258,53.9299242 L39.6297258,55.3202479 C39.6297258,57.0764463 38.7776454,57.9545455 37.0734836,57.9545455 C35.3693218,57.9545455 34.5172414,57.0764463 34.5172414,55.3202479 L34.5172414,2.63429752 C34.5172414,0.878099174 35.3693218,0 37.0734836,0 C38.7315866,0 39.583667,0.878099174 39.6297258,2.63429752 L39.6297258,25.0990014 C42.4392896,22.4159202 45.7324658,21.0743802 49.5092565,21.0743802 C53.6545141,21.0743802 57.1549542,22.635445 60.0105758,25.7575758 C62.9583149,28.7821392 64.4321839,32.4896694 64.4321839,36.8801653 Z M49.5092565,26.2698003 C46.7457514,26.2698003 44.4198009,27.3186406 42.5314061,29.4163223 C40.5969526,31.4652204 39.6297258,33.953168 39.6297258,36.8801653 L39.6297258,42.1487603 C39.6297258,45.0757576 40.5969526,47.5637052 42.5314061,49.6126033 C44.4658597,51.710285 46.7918101,52.7591253 49.5092565,52.7591253 C52.2727615,52.7591253 54.6217409,51.710285 56.5561944,49.6126033 C58.5367067,47.5637052 59.5269624,45.0757576 59.5269624,42.1487603 L59.5269624,36.8801653 C59.5269624,33.953168 58.5367067,31.4652204 56.5561944,29.4163223 C54.6217409,27.3186406 52.2727615,26.2698003 49.5092565,26.2698003 Z" id="b-copy"></path>
                </g>
            </g>
        </g>
    </g>
</svg>