<?xml version="1.0" encoding="UTF-8"?>
<svg width="157px" height="193px" viewBox="0 0 157 193" version="1.1" xmlns="http://www.w3.org/2000/svg" xmlns:xlink="http://www.w3.org/1999/xlink">
    <!-- Generator: Sketch 55.2 (78181) - https://sketchapp.com -->
    <title>Group 5</title>
    <desc>Created with Sketch.</desc>
    <g id="Home" stroke="none" stroke-width="1" fill="none" fill-rule="evenodd">
        <g id="Desktop-HD" transform="translate(-625.000000, -5805.000000)" stroke="#FFFFFF" stroke-width="2.6">
            <g id="Group-5" transform="translate(625.000000, 5805.000000)">
                <g id="Group-2" transform="translate(25.000000, 0.000000)">
                    <ellipse id="Oval-Copy-3" cx="52.7222222" cy="173.571429" rx="9.38888889" ry="9.28571429"></ellipse>
                    <path d="M1.3,17.2714286 L102.7,17.2714286 L102.7,13 C102.7,6.53826843 97.4617316,1.3 91,1.3 L13,1.3 C6.53826843,1.3 1.3,6.53826843 1.3,13 L1.3,17.2714286 Z" id="Rectangle"></path>
                    <path d="M-1.3,155.842857 L105.3,155.842857 L105.3,177 C105.3,184.897672 98.8976719,191.3 91,191.3 L13,191.3 C5.10232808,191.3 -1.3,184.897672 -1.3,177 L-1.3,155.842857 Z" id="Rectangle-Copy" stroke-linejoin="round"></path>
                </g>
                <path d="M0,91.5 L157,91.5" id="Path-4" stroke-dasharray="2.6"></path>
            </g>
        </g>
    </g>
</svg>