<?xml version="1.0" encoding="UTF-8"?>
<svg width="153px" height="34px" viewBox="0 0 153 34" version="1.1" xmlns="http://www.w3.org/2000/svg" xmlns:xlink="http://www.w3.org/1999/xlink">
    <!-- Generator: Sketch 55.2 (78181) - https://sketchapp.com -->
    <title>right-side</title>
    <desc>Created with Sketch.</desc>
    <g id="Design-System" stroke="none" stroke-width="1" fill="none" fill-rule="evenodd">
        <g id="Desktop-HD-Copy" transform="translate(-592.000000, -86.000000)">
            <g id="right-side" transform="translate(592.000000, 86.000000)">
                <rect id="Rectangle-Copy-6" stroke="#000000" stroke-width="1.536" x="0.768" y="0.768" width="150.924" height="32.464"></rect>
                <g id="digital-butik" transform="translate(11.550000, 10.045455)" fill="#000000" fill-rule="nonzero">
                    <g id="digital">
                        <path d="M0,8.85123967 C0,7.79752066 0.341431789,6.90771341 1.02429561,6.18181818 C1.70715943,5.44421488 2.523395,5.06955932 3.47300231,5.05785124 C4.35859114,5.05785124 5.13214789,5.37982085 5.79367206,6.02376033 L5.79367206,0.632231405 C5.79367206,0.210743802 5.98572748,0 6.36983834,0 C6.74327936,0 6.93,0.210743802 6.93,0.632231405 L6.93,13.2768595 C6.93,13.6983471 6.74327936,13.9090909 6.36983834,13.9090909 C5.98572748,13.9090909 5.79367206,13.6983471 5.79367206,13.2768595 L5.79367206,12.9431818 C5.13214789,13.5871213 4.35859114,13.9090909 3.47300231,13.9090909 C2.523395,13.9090909 1.70715943,13.5402893 1.02429561,12.802686 C0.352101617,12.0767907 0.0106698274,11.1811296 0,10.1157025 L0,8.85123967 Z M3.47300231,6.30475207 C2.83281755,6.30475207 2.2939953,6.55647374 1.8565358,7.05991736 C1.40840647,7.55165289 1.1843418,8.14876033 1.1843418,8.85123967 L1.1843418,10.1157025 C1.1843418,10.8181818 1.40840647,11.4152893 1.8565358,11.9070248 C2.30466513,12.4104684 2.84348738,12.6621901 3.47300231,12.6621901 C4.11318707,12.6621901 4.65734411,12.4104684 5.10547344,11.9070248 C5.5642726,11.4152893 5.79367206,10.8181818 5.79367206,10.1157025 L5.79367206,8.85123967 C5.79367206,8.14876033 5.5642726,7.55165289 5.10547344,7.05991736 C4.65734411,6.55647374 4.11318707,6.30475207 3.47300231,6.30475207 Z" id="d-copy-2"></path>
                        <path d="M15.3991824,12.5568182 C15.3991824,12.9431818 15.1893359,13.1363636 14.7696432,13.1363636 C14.3379592,13.1363636 14.1221172,12.9431818 14.1221172,12.5568182 L14.1221172,7.35700758 C14.1221172,7.03503788 13.9962094,6.75599756 13.7443937,6.51988636 C13.492578,6.29450758 13.1868019,6.1764521 12.8270652,6.1657197 L12.1795392,6.1657197 C11.7598465,6.1657197 11.55,5.97253788 11.55,5.58617424 C11.55,5.21054301 11.7598465,5.02272727 12.1795392,5.02272727 L12.8270652,5.02272727 C13.5345472,5.02272727 14.140104,5.24810606 14.6437354,5.69886364 C15.1473667,6.14962121 15.3991824,6.6969697 15.3991824,7.34090909 L15.3991824,12.5568182 Z M14.1221172,1.54545455 C14.4698626,1.54545455 14.7756387,1.65814394 15.0394457,1.88352273 C15.2912614,2.10890152 15.4111737,2.38257576 15.3991824,2.70454545 C15.3991824,3.02651515 15.2792701,3.29482331 15.0394457,3.5094697 C14.7876301,3.73484848 14.4818539,3.85290396 14.1221172,3.86363636 C13.7623805,3.86363636 13.4566044,3.74558089 13.2047887,3.5094697 C12.952973,3.28409091 12.8270652,3.01578275 12.8270652,2.70454545 C12.8270652,2.39330816 12.952973,2.11963392 13.2047887,1.88352273 C13.4566044,1.65814394 13.7623805,1.54545455 14.1221172,1.54545455 Z" id="i-copy-3"></path>
                        <path d="M23.2234459,19.9867211 C22.9916892,19.905686 22.7654504,19.801498 22.5447297,19.6741573 C22.3460811,19.5583928 22.1474324,19.4136874 21.9487838,19.2400409 C21.7611713,19.0663943 21.6177027,18.9043242 21.5183784,18.7538304 C21.4190541,18.6149132 21.3693919,18.4875724 21.3693919,18.371808 C21.3693919,18.2907728 21.3859459,18.2213142 21.4190541,18.1634321 C21.441126,18.0939734 21.4797523,18.0303029 21.5349324,17.9724208 C21.5901125,17.926115 21.6508108,17.8855975 21.717027,17.8508682 C21.7832432,17.8161389 21.8494595,17.7987743 21.9156757,17.7987743 C21.9377477,17.7987743 21.9708558,17.8045624 22.015,17.8161389 C22.0591442,17.8277154 22.1143243,17.8508682 22.1805405,17.8855975 L22.3460811,18.0245148 C22.4012612,18.0592441 22.4619595,18.0997616 22.5281757,18.1460674 C22.6826801,18.2965612 22.8316666,18.4239019 22.9751351,18.5280899 C23.1075676,18.609125 23.2289639,18.6727953 23.3393243,18.7191011 C23.4276125,18.7769832 23.5490091,18.8117125 23.7035135,18.8232891 C23.8580179,18.8464419 24.0290766,18.8580184 24.2166892,18.8580184 C24.3601577,18.8580184 24.487072,18.8522303 24.5974324,18.8406537 C24.7077929,18.8406537 24.7960811,18.8290772 24.8622973,18.8059244 C24.9174774,18.7943479 24.9947297,18.765407 25.094054,18.7191011 C25.1823422,18.6843718 25.2761486,18.6322778 25.375473,18.5628192 C25.5079054,18.4586313 25.6403378,18.3428668 25.7727703,18.215526 C25.8941666,18.0881853 26.0155631,17.9434797 26.1369594,17.7814096 C26.2473199,17.6193396 26.3300902,17.4630576 26.3852703,17.3125638 C26.4514865,17.1736466 26.4845946,17.0405174 26.4845946,16.9131767 C26.4956307,16.6932243 26.4404503,16.4732721 26.319054,16.2533197 C26.2086936,16.0449438 26.0431531,15.8423561 25.8224324,15.6455567 C25.5906757,15.4487573 25.353401,15.2982635 25.1106081,15.1940756 C24.8567793,15.1014642 24.5974324,15.0551583 24.3325676,15.0551583 C23.9463064,15.0667349 23.5931531,15.0030644 23.2731081,14.8641471 C22.964099,14.7252298 22.6937162,14.5284305 22.4619595,14.2737487 C22.2302027,14.019067 22.037072,13.6891385 21.8825676,13.2839632 C21.7280631,12.8903642 21.6066666,12.4215185 21.5183784,11.8774259 L21.4190541,11.4259448 C21.3859459,11.2870276 21.3528378,11.1365338 21.3197297,10.9744637 C21.2755855,10.847123 21.2369595,10.7255704 21.2038513,10.6098059 C21.1597071,10.4940415 21.1210811,10.3898535 21.087973,10.2972421 C20.9776125,10.0888662 20.8948423,9.87470217 20.8396622,9.65474974 C20.8065541,9.48110317 20.79,9.30166846 20.79,9.11644535 L20.79,9.02962206 C20.79,8.94858691 20.7955179,8.87334014 20.8065541,8.80388151 C20.8065541,8.73442288 20.812072,8.66496425 20.8231081,8.59550562 C20.8672523,8.30609457 20.9610585,8.03983657 21.104527,7.79673136 C21.2369595,7.54204962 21.4190541,7.29315628 21.6508108,7.05005107 C21.8384233,6.84167518 22.031554,6.6680286 22.2302027,6.52911134 C22.4288513,6.4017706 22.6275,6.29758266 22.8261486,6.2165475 C23.0137612,6.14708887 23.2510361,6.09499489 23.537973,6.06026558 C23.8249098,6.01395973 24.1615091,5.99080695 24.5477703,5.99080695 L25.2430405,5.99080695 C25.4306531,5.97923042 25.5686037,5.96186576 25.6568919,5.93871297 C25.7341442,5.93871297 25.8279503,5.91556018 25.9383108,5.86925434 C26.0486712,5.8229485 26.1700675,5.76506639 26.3025,5.69560776 C26.3687162,5.66087845 26.4459685,5.6145726 26.5342567,5.5566905 C26.6225449,5.52196118 26.7163513,5.46986721 26.8156757,5.40040858 C26.9039639,5.31937342 26.9867341,5.24991479 27.0639865,5.19203269 C27.1522747,5.13415058 27.229527,5.07626821 27.2957432,5.01838611 C27.3509233,4.97208027 27.4116216,4.92577469 27.4778378,4.87946885 C27.544054,4.84473953 27.6157882,4.80422208 27.6930405,4.75791624 C27.7482206,4.72318693 27.803401,4.69424574 27.8585811,4.67109295 C27.9027253,4.64794016 27.9413513,4.63636364 27.9744594,4.63636364 C28.0406757,4.63636364 28.1068919,4.65372829 28.1731081,4.68845761 C28.2393243,4.7116104 28.2945044,4.75791624 28.3386486,4.82737487 C28.3827929,4.88525698 28.4214189,4.94892748 28.454527,5.01838611 C28.476599,5.07626821 28.4876351,5.13993871 28.4876351,5.20939734 C28.4986712,5.30200876 28.4710811,5.40619671 28.4048648,5.52196118 C28.3276125,5.62614913 28.2227702,5.74770174 28.0903378,5.886619 C27.9689415,6.02553626 27.8254729,6.152877 27.6599324,6.26864147 C27.505428,6.38440594 27.3398874,6.48859389 27.1633108,6.58120531 C27.0970946,6.62751115 27.0088064,6.67960513 26.8984459,6.73748723 C26.7880855,6.79536934 26.6611712,6.85903984 26.5177027,6.92849847 C26.5508108,6.96322778 26.594955,7.01532176 26.6501351,7.08478039 C26.7053152,7.15423902 26.7660135,7.22948578 26.8322297,7.31052094 C26.953626,7.46101473 27.0529503,7.62308478 27.1302027,7.79673136 C27.2184909,7.97037794 27.2902253,8.14981265 27.3454054,8.33503575 C27.3895496,8.50868233 27.4171395,8.68811704 27.4281757,8.87334014 C27.4392118,9.04698672 27.4281757,9.2206333 27.3950675,9.39427988 C27.3398874,9.74157303 27.229527,10.059925 27.0639865,10.3493361 C26.8984459,10.6503234 26.6832432,10.9281579 26.4183784,11.1828396 C26.1424774,11.4375214 25.8334685,11.6458973 25.4913513,11.8079673 C25.1381983,11.9584611 24.7519368,12.0510725 24.3325676,12.0858018 C24.2553152,12.0973784 24.1725449,12.1031665 24.0842567,12.1031665 C23.9849324,12.1031665 23.8966442,12.0973784 23.8193919,12.0858018 C23.7200676,12.0858018 23.6207432,12.0742253 23.5214189,12.0510725 C23.4220946,12.039496 23.3282882,12.0163432 23.24,11.9816139 C23.1517118,11.9584611 23.0744595,11.9410964 23.0082432,11.9295199 C22.9530631,11.9063671 22.8978828,11.8890025 22.8427027,11.8774259 C22.7764865,11.8658494 22.7268243,11.8600613 22.6937162,11.8600613 L22.644054,11.8600613 C22.6109459,11.8947906 22.6109459,11.9642492 22.644054,12.0684372 C22.6771622,12.1610486 22.7323423,12.2999659 22.8095946,12.485189 C22.8758108,12.6704121 22.947545,12.8382703 23.0247973,12.988764 C23.1020496,13.1276813 23.1793017,13.2434458 23.256554,13.3360572 C23.3448422,13.4286686 23.4276125,13.5097038 23.5048649,13.5791624 C23.5710811,13.648621 23.6372973,13.6891385 23.7035135,13.700715 C23.7476577,13.7238678 23.8359459,13.752809 23.9683784,13.7875383 C24.1008108,13.8106911 24.2773875,13.8280558 24.4981081,13.8396323 C24.8291892,13.8859381 25.1381983,13.9611849 25.4251351,14.0653728 C25.7231081,14.146408 25.987973,14.2621722 26.2197297,14.412666 C26.4514865,14.5631598 26.6722071,14.754171 26.8818919,14.9856997 C27.0805405,15.2172284 27.2626351,15.4776982 27.4281757,15.7671093 C27.4833557,15.89445 27.5330179,16.0160026 27.5771621,16.1317671 C27.6213064,16.2475316 27.6544145,16.3690842 27.6764865,16.4964249 C27.6985585,16.6353422 27.7040766,16.7684713 27.6930405,16.8958121 C27.6930405,17.0231528 27.6764865,17.1504938 27.6433784,17.2778345 C27.5992341,17.5325163 27.5164639,17.7814096 27.3950675,18.0245148 C27.2847071,18.2560435 27.1412388,18.4875724 26.9646621,18.7191011 C26.7880855,18.9390535 26.5894368,19.141641 26.3687162,19.3268641 C26.1479956,19.5120873 25.9052027,19.6683692 25.6403378,19.7957099 C25.4747973,19.8767451 25.2871848,19.9404153 25.0775,19.9867211 C24.8678152,20.0214505 24.6470946,20.0503916 24.4153378,20.0735444 C24.3491216,20.085121 24.2884233,20.0909091 24.2332432,20.0909091 L24.0511486,20.0909091 C23.8966442,20.0909091 23.7476577,20.0793326 23.6041892,20.0561798 C23.4717567,20.0561798 23.3448422,20.033027 23.2234459,19.9867211 Z M24.8126351,10.7487232 C24.9781757,10.6908411 25.1271621,10.6271706 25.2595946,10.557712 C25.4030631,10.4651005 25.5410135,10.3551242 25.6734459,10.2277835 C25.8058784,10.1235955 25.9162388,10.0020429 26.004527,9.86312564 C26.0817793,9.72420838 26.1424774,9.57371459 26.1866216,9.41164454 L26.2528378,9.16853933 C26.2638739,9.11065722 26.2693919,9.05856325 26.2693919,9.01225741 L26.2693919,8.97752809 C26.2583558,8.91964599 26.2418017,8.85018735 26.2197297,8.7691522 C26.1976577,8.68811704 26.1645496,8.59550562 26.1204054,8.49131767 C26.0210811,8.27136525 25.8831307,8.06877775 25.706554,7.88355465 C25.5410135,7.70990807 25.3423648,7.55362615 25.1106081,7.41470889 C24.9450676,7.34525026 24.779527,7.28736815 24.6139865,7.24106231 C24.4484459,7.20633299 24.2829054,7.18896834 24.1173649,7.18896834 C24.0290766,7.18896834 23.9352703,7.19475647 23.8359459,7.20633299 C23.7586936,7.22948578 23.6759233,7.24685044 23.5876351,7.25842697 C23.4110585,7.31630907 23.2455179,7.3857677 23.0910135,7.46680286 C22.947545,7.53626149 22.8095946,7.62308478 22.6771622,7.72727273 C22.5447297,7.8430372 22.4288513,7.96458981 22.329527,8.09193054 C22.2412388,8.21927128 22.1639865,8.35240041 22.0977703,8.49131767 C22.053626,8.60708214 22.0205179,8.7054817 21.9984459,8.78651685 C21.976374,8.86755201 21.9653378,8.93122225 21.9653378,8.97752809 C21.9543017,8.97752809 21.9487838,8.98331622 21.9487838,8.99489275 L21.9487838,9.02962206 C21.9487838,9.06435138 21.9543017,9.11065722 21.9653378,9.16853933 C21.976374,9.24957448 21.9984459,9.33060938 22.031554,9.41164454 C22.0646622,9.5505618 22.1253604,9.69526719 22.2136486,9.84576098 C22.290901,9.97310172 22.3957432,10.0946543 22.5281757,10.2104188 C22.6385361,10.3493361 22.7654504,10.4651005 22.9089189,10.557712 C23.0523875,10.6271706 23.2013739,10.6908411 23.3558784,10.7487232 C23.4993469,10.8066053 23.6317794,10.8413346 23.7531757,10.8529111 C23.874572,10.8760639 23.9849324,10.8876404 24.0842567,10.8876404 C24.1725449,10.8876404 24.2773875,10.8760639 24.3987838,10.8529111 C24.5201801,10.8413346 24.6581307,10.8066053 24.8126351,10.7487232 Z" id="g-copy"></path>
                        <path d="M35.4191824,12.5568182 C35.4191824,12.9431818 35.2093359,13.1363636 34.7896432,13.1363636 C34.3579592,13.1363636 34.1421172,12.9431818 34.1421172,12.5568182 L34.1421172,7.35700758 C34.1421172,7.03503788 34.0162094,6.75599756 33.7643937,6.51988636 C33.512578,6.29450758 33.2068019,6.1764521 32.8470652,6.1657197 L32.1995392,6.1657197 C31.7798465,6.1657197 31.57,5.97253788 31.57,5.58617424 C31.57,5.21054301 31.7798465,5.02272727 32.1995392,5.02272727 L32.8470652,5.02272727 C33.5545472,5.02272727 34.160104,5.24810606 34.6637354,5.69886364 C35.1673667,6.14962121 35.4191824,6.6969697 35.4191824,7.34090909 L35.4191824,12.5568182 Z M34.1421172,1.54545455 C34.4898626,1.54545455 34.7956387,1.65814394 35.0594457,1.88352273 C35.3112614,2.10890152 35.4311737,2.38257576 35.4191824,2.70454545 C35.4191824,3.02651515 35.2992701,3.29482331 35.0594457,3.5094697 C34.8076301,3.73484848 34.5018539,3.85290396 34.1421172,3.86363636 C33.7823805,3.86363636 33.4766044,3.74558089 33.2247887,3.5094697 C32.972973,3.28409091 32.8470652,3.01578275 32.8470652,2.70454545 C32.8470652,2.39330816 32.972973,2.11963392 33.2247887,1.88352273 C33.4766044,1.65814394 33.7823805,1.54545455 34.1421172,1.54545455 Z" id="i-copy-2"></path>
                        <path d="M43.2370653,9.54699776 L43.2370653,5.9075477 L41.4293201,5.9075477 C41.01644,5.9075477 40.81,5.707211 40.81,5.3065376 C40.81,4.9169941 41.01644,4.72222222 41.4293201,4.72222222 L43.2370653,4.72222222 L43.2370653,2.91919192 C43.2370653,2.51851852 43.4379259,2.31818182 43.8396471,2.31818182 C44.2413682,2.31818182 44.4422288,2.51851852 44.4422288,2.91919192 L44.4422288,4.72222222 L46.2499741,4.72222222 C46.6628542,4.72222222 46.8692942,4.9169941 46.8692942,5.3065376 C46.8692942,5.707211 46.6628542,5.9075477 46.2499741,5.9075477 L44.4422288,5.9075477 L44.4422288,9.53030303 C44.4422288,10.198092 44.6765662,10.7657127 45.1452409,11.233165 C45.6139155,11.7117472 46.1885999,11.9510382 46.8692942,11.9510382 C47.4607169,11.9510382 47.750849,12.14581 47.73969,12.5353535 C47.73969,12.9360269 47.4495582,13.1363636 46.8692942,13.1363636 C45.8649913,13.1363636 45.0057544,12.7913392 44.2915834,12.1012907 C43.5885714,11.3889823 43.2370653,10.5375514 43.2370653,9.54699776 Z" id="t-copy-2"></path>
                        <path d="M55.0630023,9.05194805 C54.4228176,9.05194805 53.8839953,9.22622045 53.4465358,9.57476551 C52.9984065,9.93455379 52.7743418,10.3674242 52.7743418,10.8733766 C52.7743418,11.3680855 52.9984065,11.7953344 53.4465358,12.1551227 C53.8946651,12.5149109 54.4334874,12.7004268 55.0630023,12.7116703 C55.7031871,12.7116703 56.2473441,12.5261544 56.6954734,12.1551227 C57.1542726,11.7953344 57.3836721,11.3680855 57.3836721,10.8733766 C57.3836721,10.3674242 57.1542726,9.93455379 56.6954734,9.57476551 C56.2473441,9.22622045 55.7031871,9.05194805 55.0630023,9.05194805 Z M58.52,9.03508297 L58.52,13.3019481 C58.52,13.70671 58.3332794,13.9090909 57.9598383,13.9090909 C57.5757275,13.9090909 57.3836721,13.70671 57.3836721,13.3019481 L57.3836721,13.1332973 C56.7221479,13.6504931 55.9485911,13.9090909 55.0630023,13.9090909 C54.113395,13.9090909 53.2971594,13.6111411 52.6142956,13.0152417 C51.9421016,12.4193423 51.6006698,11.7053871 51.59,10.8733766 C51.59,10.0413661 51.9314318,9.32741093 52.6142956,8.73151154 C53.2971594,8.13561216 54.113395,7.84328395 55.0630023,7.85452742 C55.9165819,7.85452742 56.674134,8.09626014 57.3356582,8.57972583 C57.2182911,8.02879982 56.9515473,7.56782107 56.5354273,7.19678932 C56.1086373,6.8145141 55.6178292,6.61775502 55.0630023,6.60651154 L53.3345035,6.60651154 C52.9610624,6.60651154 52.7743418,6.40413059 52.7743418,5.99936869 C52.7743418,5.60585025 52.9610624,5.40909091 53.3345035,5.40909091 L55.0630023,5.40909091 C56.0126096,5.40909091 56.8235104,5.76325758 57.4957044,6.47159091 C58.1785682,7.17992424 58.52,8.03442168 58.52,9.03508297 Z" id="a-copy"></path>
                        <path d="M64.4173364,0.632231405 L64.4173364,11.3626033 C64.4173364,11.713843 64.543271,12.0182506 64.7951402,12.2758264 C65.0470093,12.5216942 65.3528505,12.650482 65.7126636,12.6621901 L66.3603271,12.6621901 C66.7801089,12.6621901 66.99,12.86708 66.99,13.2768595 C66.99,13.6983471 66.7801089,13.9090909 66.3603271,13.9090909 L65.7126636,13.9090909 C64.9930374,13.9090909 64.3873519,13.6632231 63.8956075,13.1714876 C63.3918692,12.6797521 63.14,12.0826446 63.14,11.3801653 L63.14,0.632231405 C63.14,0.210743802 63.3498911,0 63.7696729,0 C64.2014486,0 64.4173364,0.210743802 64.4173364,0.632231405 Z" id="l-copy"></path>
                    </g>
                    <g id="butik" transform="translate(82.390000, 0.000000)">
                        <path d="M6.93,8.85123967 L6.93,10.1157025 C6.93,11.1694215 6.58856821,12.0650826 5.90570439,12.802686 C5.24418022,13.5402893 4.43327945,13.9090909 3.47300231,13.9090909 C2.58741348,13.9090909 1.82452656,13.5871213 1.1843418,12.9431818 L1.1843418,13.2768595 C1.1843418,13.6983471 0.986951583,13.9090909 0.592170901,13.9090909 C0.197390219,13.9090909 0,13.6983471 0,13.2768595 L0,0.632231405 C0,0.210743802 0.197390219,0 0.592170901,0 C0.976281755,0 1.17367197,0.210743802 1.1843418,0.632231405 L1.1843418,6.02376033 C1.83519639,5.37982085 2.59808306,5.05785124 3.47300231,5.05785124 C4.43327945,5.05785124 5.24418022,5.4325068 5.90570439,6.18181818 C6.58856821,6.90771341 6.93,7.79752066 6.93,8.85123967 Z M3.47300231,6.30475207 C2.83281755,6.30475207 2.2939953,6.55647374 1.8565358,7.05991736 C1.40840647,7.55165289 1.1843418,8.14876033 1.1843418,8.85123967 L1.1843418,10.1157025 C1.1843418,10.8181818 1.40840647,11.4152893 1.8565358,11.9070248 C2.30466513,12.4104684 2.84348738,12.6621901 3.47300231,12.6621901 C4.11318707,12.6621901 4.65734411,12.4104684 5.10547344,11.9070248 C5.5642726,11.4152893 5.79367206,10.8181818 5.79367206,10.1157025 L5.79367206,8.85123967 C5.79367206,8.14876033 5.5642726,7.55165289 5.10547344,7.05991736 C4.65734411,6.55647374 4.11318707,6.30475207 3.47300231,6.30475207 Z" id="b-copy-2"></path>
                        <path d="M16.94,13.3019481 C16.94,13.70671 16.7532794,13.9090909 16.3798383,13.9090909 C15.9957275,13.9090909 15.8036721,13.70671 15.8036721,13.3019481 L15.8036721,12.9815115 C15.1421479,13.5998979 14.3685911,13.9090909 13.4830023,13.9090909 C12.533395,13.9090909 11.7171594,13.5549242 11.0342956,12.8465909 C10.3621016,12.149501 10.0206698,11.289382 10.01,10.2662338 L10.01,5.99936869 C10.01,5.60585025 10.2073902,5.40909091 10.6021709,5.40909091 C10.9862818,5.40909091 11.183672,5.60585025 11.1943418,5.99936869 L11.1943418,10.2662338 C11.1943418,10.9408369 11.4184065,11.5142496 11.8665358,11.9864719 C12.3146651,12.4699376 12.8534874,12.7116703 13.4830023,12.7116703 C14.1231871,12.7116703 14.6673441,12.4699376 15.1154734,11.9864719 C15.5742726,11.5142496 15.8036721,10.9408369 15.8036721,10.2662338 L15.8036721,5.99936869 C15.8036721,5.60585025 15.9957275,5.40909091 16.3798383,5.40909091 C16.7532794,5.40909091 16.94,5.60585025 16.94,5.99936869 L16.94,13.3019481 Z" id="u-copy"></path>
                        <path d="M23.2170653,9.54699776 L23.2170653,5.9075477 L21.4093201,5.9075477 C20.99644,5.9075477 20.79,5.707211 20.79,5.3065376 C20.79,4.9169941 20.99644,4.72222222 21.4093201,4.72222222 L23.2170653,4.72222222 L23.2170653,2.91919192 C23.2170653,2.51851852 23.4179259,2.31818182 23.8196471,2.31818182 C24.2213682,2.31818182 24.4222288,2.51851852 24.4222288,2.91919192 L24.4222288,4.72222222 L26.2299741,4.72222222 C26.6428542,4.72222222 26.8492942,4.9169941 26.8492942,5.3065376 C26.8492942,5.707211 26.6428542,5.9075477 26.2299741,5.9075477 L24.4222288,5.9075477 L24.4222288,9.53030303 C24.4222288,10.198092 24.6565662,10.7657127 25.1252409,11.233165 C25.5939155,11.7117472 26.1685999,11.9510382 26.8492942,11.9510382 C27.4407169,11.9510382 27.730849,12.14581 27.71969,12.5353535 C27.71969,12.9360269 27.4295582,13.1363636 26.8492942,13.1363636 C25.8449913,13.1363636 24.9857544,12.7913392 24.2715834,12.1012907 C23.5685714,11.3889823 23.2170653,10.5375514 23.2170653,9.54699776 Z" id="t-copy"></path>
                        <path d="M36.1891824,12.5568182 C36.1891824,12.9431818 35.9793359,13.1363636 35.5596432,13.1363636 C35.1279592,13.1363636 34.9121172,12.9431818 34.9121172,12.5568182 L34.9121172,7.35700758 C34.9121172,7.03503788 34.7862094,6.75599756 34.5343937,6.51988636 C34.282578,6.29450758 33.9768019,6.1764521 33.6170652,6.1657197 L32.9695392,6.1657197 C32.5498465,6.1657197 32.34,5.97253788 32.34,5.58617424 C32.34,5.21054301 32.5498465,5.02272727 32.9695392,5.02272727 L33.6170652,5.02272727 C34.3245472,5.02272727 34.930104,5.24810606 35.4337354,5.69886364 C35.9373667,6.14962121 36.1891824,6.6969697 36.1891824,7.34090909 L36.1891824,12.5568182 Z M34.9121172,1.54545455 C35.2598626,1.54545455 35.5656387,1.65814394 35.8294457,1.88352273 C36.0812614,2.10890152 36.2011737,2.38257576 36.1891824,2.70454545 C36.1891824,3.02651515 36.0692701,3.29482331 35.8294457,3.5094697 C35.5776301,3.73484848 35.2718539,3.85290396 34.9121172,3.86363636 C34.5523805,3.86363636 34.2466044,3.74558089 33.9947887,3.5094697 C33.742973,3.28409091 33.6170652,3.01578275 33.6170652,2.70454545 C33.6170652,2.39330816 33.742973,2.11963392 33.9947887,1.88352273 C34.2466044,1.65814394 34.5523805,1.54545455 34.9121172,1.54545455 Z" id="i-copy"></path>
                        <path d="M47.5357143,12.767562 C47.6719048,12.9197659 47.74,13.0661157 47.74,13.2066116 C47.74,13.3588155 47.6719048,13.5051653 47.5357143,13.6456612 C47.2738094,13.9500688 47.0066666,13.9500688 46.7342857,13.6456612 C45.8961906,12.7090221 44.6338094,11.3040635 42.9471429,9.43078512 L41.9414286,10.5547521 L41.9414286,13.2768595 C41.9414286,13.6983471 41.7580952,13.9090909 41.3914286,13.9090909 C41.0038094,13.9090909 40.81,13.6983471 40.81,13.2768595 L40.81,0.632231405 C40.81,0.210743802 41.0038094,0 41.3914286,0 C41.7580952,0 41.9414286,0.210743802 41.9414286,0.632231405 L41.9414286,8.76342975 L45.0371429,5.30371901 C45.2990477,5.01101919 45.5661906,5.01101919 45.8385714,5.30371901 C46.1004763,5.59641882 46.1004763,5.89497254 45.8385714,6.19938017 C45.3776191,6.72623967 44.6809523,7.50482085 43.7485714,8.53512397 L47.5357143,12.767562 Z" id="k-copy"></path>
                    </g>
                </g>
            </g>
        </g>
    </g>
</svg>